<?xml version="1.0" encoding="UTF-8"?>
<svg width="12px" height="13px" viewBox="0 0 12 13" version="1.1" xmlns="http://www.w3.org/2000/svg" xmlns:xlink="http://www.w3.org/1999/xlink">
    <title>Group 3 Copy 2</title>
    <defs>
        <polygon id="path-1" points="1.42108547e-13 0.3195 11 0.3195 11 11.3195 1.42108547e-13 11.3195"></polygon>
    </defs>
    <g id="Welcome" stroke="none" stroke-width="1" fill="none" fill-rule="evenodd">
        <g id="Desktop-HD---Dark" transform="translate(-53.000000, -476.000000)">
            <g id="about" transform="translate(53.000000, 213.000000)">
                <g id="list-bulletpoints" transform="translate(0.000000, 179.843185)">
                    <g id="Group-3-Copy-2" transform="translate(5.738196, 89.738158) scale(1, -1) translate(-5.738196, -89.738158) translate(0.000000, 84.000000)">
                        <mask id="mask-2" fill="white">
                            <use xlink:href="#path-1"></use>
                        </mask>
                        <g id="Clip-2"></g>
                        <path d="M5.5,8.0986556 C4.22577005,8.0986556 3.19280404,7.06568959 3.19280404,5.79145964 C3.19280404,4.51722969 4.22577005,3.48426367 5.5,3.48426367 C6.77422995,3.48426367 7.80719596,4.51722969 7.80719596,5.79145964 C7.80719596,7.06568959 6.77422995,8.0986556 5.5,8.0986556 M10.1573287,4.97668269 L9.09398566,4.97668269 C9.00416888,4.57886006 8.85067711,4.20513463 8.6437334,3.86748194 L9.38913967,3.12207568 C9.71817578,2.79303956 9.71817578,2.25939644 9.38913967,1.93036033 C9.05995751,1.60117817 8.52646044,1.60117817 8.19727828,1.93036033 C8.07839883,2.04923978 7.73665693,2.39098168 7.45800584,2.66963277 C7.11933086,2.45684732 6.74370685,2.29780589 6.34267127,2.20389989 L6.34267127,1.16217127 C6.34267127,0.696730483 5.96544079,0.3195 5.5,0.3195 C5.03455921,0.3195 4.65732873,0.696730483 4.65732873,1.16217127 L4.65732873,2.20389989 C4.25629315,2.29780589 3.88066914,2.45684732 3.54199416,2.66963277 C3.26319703,2.39083563 2.92247743,2.05011604 2.80272172,1.93036033 C2.47353956,1.60117817 1.94004249,1.60117817 1.61086033,1.93036033 C1.28182422,2.25939644 1.28182422,2.79303956 1.61086033,3.12207568 C1.73076208,3.24197743 2.0765932,3.58780855 2.3562666,3.86748194 C2.14932289,4.20513463 1.99583112,4.57886006 1.90601434,4.97668269 L0.842671269,4.97668269 C0.377376527,4.97668269 1.42108547e-13,5.35405921 1.42108547e-13,5.8195 C1.42108547e-13,6.28479474 0.377376527,6.66217127 0.842671269,6.66217127 L1.91886617,6.66217127 C2.01350239,7.05269172 2.17020712,7.41867685 2.37817313,7.74946548 C2.0947026,8.03308205 1.73470526,8.39293335 1.61086033,8.51677828 C1.28182422,8.84581439 1.28182422,9.37945751 1.61086033,9.70849363 C1.94004249,10.0376758 2.47353956,10.0376758 2.80272172,9.70849363 C2.92656665,9.5846487 3.29167552,9.21953983 3.5760223,8.93519304 C3.90578864,9.13731731 4.2698752,9.28832634 4.65732873,9.37901938 L4.65732873,10.4766827 C4.65732873,10.9421235 5.03455921,11.3195 5.5,11.3195 C5.96544079,11.3195 6.34267127,10.9421235 6.34267127,10.4766827 L6.34267127,9.37901938 C6.7301248,9.28832634 7.09421136,9.13731731 7.4239777,8.93519304 C7.70847053,9.21968587 8.07255709,9.58377244 8.19727828,9.70849363 C8.52646044,10.0376758 9.05995751,10.0376758 9.38913967,9.70849363 C9.71817578,9.37945751 9.71817578,8.84581439 9.38913967,8.51677828 C9.26602496,8.39366357 8.9052974,8.03293601 8.62182687,7.74946548 C8.82979288,7.41867685 8.98649761,7.05269172 9.08113383,6.66217127 L10.1573287,6.66217127 C10.6227695,6.66217127 11,6.28479474 11,5.8195 C11,5.35405921 10.6227695,4.97668269 10.1573287,4.97668269" id="Fill-1" fill="#02D1DB" mask="url(#mask-2)"></path>
                    </g>
                </g>
            </g>
        </g>
    </g>
</svg>