<?xml version="1.0" encoding="UTF-8"?>
<svg width="328px" height="282px" viewBox="0 0 328 282" version="1.1" xmlns="http://www.w3.org/2000/svg" xmlns:xlink="http://www.w3.org/1999/xlink">
    <title>Group 45</title>
    <defs>
        <polygon id="path-1" points="0 0 94.2783523 0 94.2783523 108.329517 0 108.329517"></polygon>
        <polygon id="path-3" points="-4.4408921e-16 0 239.548517 0 239.548517 281.455465 -4.4408921e-16 281.455465"></polygon>
        <polygon id="path-5" points="0 0 64.0002593 0 64.0002593 68.0002346 0 68.0002346"></polygon>
    </defs>
    <g id="Page-1" stroke="none" stroke-width="1" fill="none" fill-rule="evenodd">
        <g id="Group-45">
            <g id="Group-9" opacity="0.361094157">
                <g id="Group-3" transform="translate(0.000000, 56.000000)">
                    <mask id="mask-2" fill="white">
                        <use xlink:href="#path-1"></use>
                    </mask>
                    <g id="Clip-2"></g>
                    <path d="M2.4568,91.0799647 L75.7348,3.75096475 C79.4618,-0.691035253 86.0848,-1.27103525 90.5278,2.45696475 C94.9698,6.18396475 95.5488,12.8069647 91.8218,17.2489647 L18.5438,104.578965 C14.8158,109.020965 8.1928,109.599965 3.7508,105.872965 C-0.6912,102.144965 -1.2712,95.5219647 2.4568,91.0799647" id="Fill-1" fill="#02D1DB" mask="url(#mask-2)"></path>
                </g>
                <path d="M2.6775,205.322065 L135.7345,46.7510647 C139.4625,42.3090647 146.0845,41.7290647 150.5275,45.4570647 C154.9695,49.1840647 155.5495,55.8070647 151.8215,60.2490647 L18.7645,218.821065 C15.0365,223.263065 8.4135,223.842065 3.9715,220.115065 C-0.4705,216.387065 -1.0505,209.764065 2.6775,205.322065" id="Fill-4" fill="#FF2600"></path>
                <g id="Group-8" transform="translate(0.729835, 0.000000)">
                    <mask id="mask-4" fill="white">
                        <use xlink:href="#path-3"></use>
                    </mask>
                    <g id="Clip-7"></g>
                    <path d="M2.45696475,264.205965 L221.004965,3.75096475 C224.731965,-0.691035253 231.354965,-1.27103525 235.797965,2.45696475 C240.239965,6.18396475 240.818965,12.8069647 237.091965,17.2489647 L18.5439647,277.704965 C14.8159647,282.146965 8.19296475,282.725965 3.75096475,278.998965 C-0.691035253,275.270965 -1.27103525,268.647965 2.45696475,264.205965" id="Fill-6" fill="#F8DA01" mask="url(#mask-4)"></path>
                </g>
            </g>
            <path d="M178.263,74.6561647 L182.886,79.2771647 L182.886,93.1391647 L196.756,93.1391647 L201.38,97.7591647 L201.38,107.001165 L196.756,111.622165 L182.886,111.622165 L182.886,125.484165 L178.263,130.104165 L169.016,130.104165 L164.393,125.484165 L164.393,111.622165 L150.523,111.622165 L145.899,107.001165 L145.899,97.7591647 L150.523,93.1391647 L162.081,93.1391647 L170.172,101.225165 L171.328,101.225165 L172.484,100.070165 L172.484,98.9151647 L164.393,90.8281647 L164.393,79.2771647 L169.016,74.6561647 L178.263,74.6561647 Z M237.211,74.6561647 L241.834,79.2771647 L241.834,93.1391647 L255.705,93.1391647 L260.328,97.7591647 L260.328,107.001165 L255.705,111.622165 L241.834,111.622165 L241.834,125.484165 L237.211,130.104165 L227.964,130.104165 L223.341,125.484165 L223.341,111.622165 L209.471,111.622165 L204.847,107.001165 L204.847,97.7591647 L209.471,93.1391647 L221.029,93.1391647 L229.12,101.225165 L230.276,101.225165 L231.432,100.070165 L231.432,98.9151647 L223.341,90.8281647 L223.341,79.2771647 L227.964,74.6561647 L237.211,74.6561647 Z M128.562,83.8971647 L142.432,97.7591647 L142.432,137.035165 L137.808,141.656165 L128.562,141.656165 L123.938,137.035165 L123.938,104.690165 L121.627,102.380165 L103.133,102.380165 L95.042,94.2941647 L93.886,94.2941647 L92.731,95.4491647 L92.731,96.6041647 L100.821,104.690165 L100.821,137.035165 L96.198,141.656165 L86.951,141.656165 L82.328,137.035165 L82.328,88.5181647 L86.951,83.8971647 L128.562,83.8971647 Z" id="Fill-10" fill="#FFFFFF"></path>
            <g id="Group-44" transform="translate(84.094900, 75.655165)">
                <path d="M221.7482,3.001 L237.7182,3.001 C238.5542,3.001 239.2332,2.329 239.2332,1.501 C239.2332,0.673 238.5542,2.84217094e-14 237.7182,2.84217094e-14 L221.7482,2.84217094e-14 C220.9132,2.84217094e-14 220.2332,0.673 220.2332,1.501 C220.2332,2.329 220.9132,3.001 221.7482,3.001" id="Fill-11" fill="#FFFFFF"></path>
                <g id="Group-15" transform="translate(179.232841, 7.001165)">
                    <mask id="mask-6" fill="white">
                        <use xlink:href="#path-5"></use>
                    </mask>
                    <g id="Clip-14"></g>
                    <path d="M63.9444593,17.6752346 C63.9284593,17.6182346 63.9024593,17.5662346 63.8804593,17.5132346 C63.8664593,17.4792346 63.8574593,17.4442346 63.8404593,17.4112346 C63.8154593,17.3592346 63.7814593,17.3112346 63.7504593,17.2632346 C63.7284593,17.2292346 63.7084593,17.1922346 63.6834593,17.1612346 C63.6544593,17.1232346 63.6194593,17.0912346 63.5874593,17.0572346 C63.5514593,17.0182346 63.5174593,16.9792346 63.4774593,16.9442346 C63.4544593,16.9252346 63.4284593,16.9092346 63.4034593,16.8922346 C63.3524593,16.8522346 63.3014593,16.8102346 63.2434593,16.7772346 C62.8834593,16.5722346 62.4714593,16.5322346 62.0984593,16.6342346 C62.0954593,16.6342346 62.0924593,16.6342346 62.0894593,16.6352346 L38.5434593,23.2362346 L42.5444593,13.4252346 L45.5024593,8.20623457 L44.6184593,18.6122346 C44.6154593,18.6372346 44.6204593,18.6622346 44.6194593,18.6872346 C44.6164593,18.7422346 44.6164593,18.7962346 44.6204593,18.8502346 C44.6244593,18.8942346 44.6304593,18.9372346 44.6374593,18.9802346 C44.6454593,19.0332346 44.6554593,19.0832346 44.6694593,19.1332346 C44.6814593,19.1792346 44.6964593,19.2222346 44.7144593,19.2672346 C44.7304593,19.3112346 44.7484593,19.3552346 44.7704593,19.3972346 C44.7934593,19.4472346 44.8204593,19.4922346 44.8504593,19.5382346 C44.8634593,19.5582346 44.8714593,19.5792346 44.8844593,19.5982346 C44.8934593,19.6112346 44.9064593,19.6202346 44.9144593,19.6322346 C44.9334593,19.6562346 44.9464593,19.6832346 44.9654593,19.7062346 C45.0034593,19.7492346 45.0464593,19.7852346 45.0884593,19.8252346 C45.1084593,19.8432346 45.1244593,19.8632346 45.1454593,19.8802346 C45.3234593,20.0322346 45.5294593,20.1362346 45.7424593,20.1892346 C45.7594593,20.1932346 45.7764593,20.1952346 45.7934593,20.1992346 C45.8454593,20.2102346 45.8984593,20.2242346 45.9504593,20.2292346 L46.1164593,20.2382346 C46.2554593,20.2382346 46.3874593,20.2122346 46.5154593,20.1772346 C46.5454593,20.1682346 46.5754593,20.1612346 46.6044593,20.1512346 C46.7264593,20.1082346 46.8414593,20.0522346 46.9474593,19.9812346 C46.9584593,19.9752346 46.9704593,19.9732346 46.9804593,19.9652346 L61.3624593,9.88323457 C61.6914593,9.65323457 61.9104593,9.30823457 61.9794593,8.91323457 C62.0484593,8.51823457 61.9584593,8.12123457 61.7304593,7.80023457 C61.4994593,7.47023457 61.1544593,7.25223457 60.7574593,7.18123457 C60.3594593,7.11223457 59.9594593,7.20223457 59.6344593,7.43323457 L47.8854593,15.6682346 L49.0794593,1.61923457 C49.0824593,1.58523457 49.0774593,1.55123457 49.0774593,1.51723457 C49.0774593,1.50923457 49.0784593,1.50323457 49.0784593,1.49523457 C49.0784593,1.45923457 49.0834593,1.42423457 49.0804593,1.38823457 C49.0794593,1.37723457 49.0764593,1.36523457 49.0754593,1.35423457 C49.0704593,1.29923457 49.0574593,1.24723457 49.0474593,1.19523457 C49.0454593,1.18423457 49.0444593,1.17423457 49.0424593,1.16323457 C49.0364593,1.14123457 49.0364593,1.11823457 49.0304593,1.09423457 C49.0304593,1.09423457 49.0294593,1.09423457 49.0294593,1.09423457 L49.0294593,1.09223457 C49.0284593,1.09023457 49.0274593,1.08923457 49.0264593,1.08723457 C49.0254593,1.08223457 49.0224593,1.07723457 49.0214593,1.07123457 C49.0044593,1.01523457 48.9814593,0.962234568 48.9574593,0.908234568 C48.9414593,0.870234568 48.9274593,0.831234568 48.9084593,0.795234568 C48.8854593,0.750234568 48.8554593,0.709234568 48.8254593,0.666234568 C48.8074593,0.638234568 48.7914593,0.607234568 48.7704593,0.580234568 C48.7674593,0.575234568 48.7644593,0.571234568 48.7614593,0.567234568 C48.7564593,0.561234568 48.7514593,0.557234568 48.7464593,0.551234568 C48.7394593,0.543234568 48.7364593,0.535234568 48.7294593,0.528234568 C48.6974593,0.489234568 48.6584593,0.458234568 48.6234593,0.423234568 C48.5974593,0.399234568 48.5744593,0.373234568 48.5484593,0.351234568 C48.4894593,0.301234568 48.4244593,0.259234568 48.3584593,0.218234568 C48.3524593,0.215234568 48.3454593,0.209234568 48.3384593,0.205234568 C48.3304593,0.201234568 48.3264593,0.192234568 48.3194593,0.188234568 C48.3114593,0.184234568 48.3024593,0.182234568 48.2944593,0.178234568 C48.2504593,0.154234568 48.2024593,0.136234568 48.1554593,0.117234568 C48.1084593,0.0982345679 48.0624593,0.0762345679 48.0154593,0.0622345679 C47.9754593,0.0502345679 47.9334593,0.0442345679 47.8934593,0.0362345679 C47.8374593,0.0242345679 47.7834593,0.0102345679 47.7274593,0.0062345679 C47.7174593,0.0052345679 47.7084593,0.0022345679 47.6984593,0.0012345679 C47.6594593,-0.0027654321 47.6204593,0.0042345679 47.5814593,0.0042345679 C47.5604593,0.0042345679 47.5384593,0.0022345679 47.5174593,0.0032345679 C47.5034593,0.0032345679 47.4904593,0.0012345679 47.4764593,0.0022345679 C47.4624593,0.0032345679 47.4484593,0.0062345679 47.4344593,0.0072345679 C47.3914593,0.0112345679 47.3484593,0.0212345679 47.3054593,0.0292345679 C47.2634593,0.0372345679 47.2204593,0.0392345679 47.1784593,0.0492345679 L28.0014593,5.35723457 C27.9874593,5.36123457 27.9784593,5.37123457 27.9644593,5.37523457 C27.8054593,5.42423457 27.6544593,5.49823457 27.5154593,5.60123457 C27.4914593,5.61723457 27.4704593,5.63523457 27.4484593,5.65323457 C27.4194593,5.67723457 27.3874593,5.69723457 27.3584593,5.72423457 L14.9744593,17.6622346 C14.3774593,18.2362346 14.3614593,19.1852346 14.9394593,19.7842346 C15.2264593,20.0762346 15.6084593,20.2382346 16.0184593,20.2382346 C16.4094593,20.2382346 16.7804593,20.0892346 17.0634593,19.8172346 L29.1734593,8.14223457 L44.4864593,3.90423457 L39.8794593,12.0322346 C39.8624593,12.0632346 39.8514593,12.0972346 39.8364593,12.1302346 C39.8234593,12.1562346 39.8074593,12.1792346 39.7954593,12.2072346 L34.6524593,24.8182346 L20.3164593,47.6182346 L0.494459312,65.3912346 C-0.118540688,65.9432346 -0.168540688,66.8912346 0.383459312,67.5022346 C0.666459312,67.8192346 1.07545931,68.0002346 1.50245931,68.0002346 C1.87645931,68.0002346 2.23445931,67.8612346 2.50845931,67.6152346 L22.4844593,49.7052346 C22.4874593,49.7022346 22.4894593,49.6982346 22.4934593,49.6942346 C22.5194593,49.6712346 22.5394593,49.6432346 22.5624593,49.6192346 C22.6204593,49.5572346 22.6754593,49.4942346 22.7214593,49.4252346 C22.7304593,49.4122346 22.7444593,49.4012346 22.7524593,49.3862346 L36.9614593,26.7912346 L59.3544593,20.5142346 L47.9434593,40.2822346 C47.7424593,40.6282346 47.6894593,41.0322346 47.7944593,41.4192346 C47.8984593,41.8052346 48.1484593,42.1282346 48.4964593,42.3272346 C48.7234593,42.4582346 48.9834593,42.5262346 49.2444593,42.5262346 C49.7804593,42.5262346 50.2804593,42.2392346 50.5484593,41.7772346 L63.8014593,18.8232346 C63.8034593,18.8192346 63.8044593,18.8142346 63.8064593,18.8102346 C63.8154593,18.7962346 63.8184593,18.7812346 63.8264593,18.7672346 C63.8644593,18.6932346 63.9004593,18.6182346 63.9264593,18.5412346 C64.0184593,18.2622346 64.0254593,17.9622346 63.9444593,17.6752346" id="Fill-13" fill="#FFFFFF" mask="url(#mask-6)"></path>
                </g>
                <path d="M4.009,92.709 C4.731,92.709 5.298,92.494 5.71,92.063 C6.121,91.633 6.327,91.012 6.327,90.201 L6.327,87.351 C6.327,86.54 6.121,85.92 5.71,85.489 C5.298,85.059 4.731,84.843 4.009,84.843 C3.312,84.843 2.755,85.064 2.337,85.508 C1.919,85.951 1.71,86.565 1.71,87.351 L1.71,90.201 C1.71,90.986 1.919,91.601 2.337,92.044 C2.755,92.487 3.312,92.709 4.009,92.709 L4.009,92.709 Z M1.42108547e-14,97.421 L1.42108547e-14,83.551 L1.71,83.551 L1.71,85.546 L2.052,85.546 L1.71,85.945 C1.71,85.147 1.973,84.517 2.499,84.055 C3.024,83.592 3.717,83.361 4.579,83.361 C5.631,83.361 6.469,83.706 7.096,84.396 C7.724,85.087 8.037,86.034 8.037,87.237 L8.037,90.296 C8.037,91.094 7.895,91.784 7.61,92.367 C7.324,92.95 6.926,93.399 6.413,93.716 C5.9,94.032 5.288,94.191 4.579,94.191 C3.73,94.191 3.04,93.957 2.508,93.488 C1.976,93.02 1.71,92.393 1.71,91.607 L2.052,92.006 L1.672,92.006 L1.71,94.381 L1.71,97.421 L1.42108547e-14,97.421 Z" id="Fill-16" fill="#FFFFFF"></path>
                <path d="M14.839,92.8418 C15.65,92.8418 16.315,92.6398 16.834,92.2348 C17.353,91.8288 17.613,91.3098 17.613,90.6758 L17.613,89.1948 L14.421,89.1948 C13.851,89.1948 13.401,89.3528 13.072,89.6688 C12.742,89.9858 12.578,90.4168 12.578,90.9608 C12.578,91.5438 12.777,92.0028 13.176,92.3388 C13.575,92.6738 14.13,92.8418 14.839,92.8418 M14.421,94.1918 C13.319,94.1918 12.451,93.9088 11.818,93.3458 C11.184,92.7818 10.868,92.0188 10.868,91.0558 C10.868,90.0808 11.184,89.3148 11.818,88.7568 C12.451,88.1998 13.306,87.9208 14.383,87.9208 L17.613,87.9208 L17.613,86.8758 C17.613,86.2428 17.42,85.7488 17.033,85.3938 C16.647,85.0388 16.112,84.8628 15.428,84.8628 C14.82,84.8628 14.307,84.9948 13.889,85.2608 C13.471,85.5278 13.211,85.8758 13.11,86.3058 L11.4,86.3058 C11.463,85.7238 11.675,85.2108 12.036,84.7668 C12.398,84.3238 12.872,83.9788 13.462,83.7318 C14.05,83.4848 14.706,83.3618 15.428,83.3618 C16.631,83.3618 17.581,83.6718 18.278,84.2918 C18.974,84.9128 19.323,85.7548 19.323,86.8198 L19.323,94.0008 L17.651,94.0008 L17.651,92.0058 L17.366,92.0058 L17.651,91.7208 C17.651,92.4818 17.357,93.0828 16.767,93.5268 C16.178,93.9698 15.396,94.1918 14.421,94.1918" id="Fill-18" fill="#FFFFFF"></path>
                <path d="M28.2531,94.001 C27.6451,94.001 27.1131,93.881 26.6571,93.64 C26.2011,93.399 25.8461,93.058 25.5931,92.614 C25.3391,92.171 25.2131,91.651 25.2131,91.056 L25.2131,81.689 L21.6031,81.689 L21.6031,80.131 L26.9231,80.131 L26.9231,91.056 C26.9231,91.486 27.0431,91.825 27.2841,92.072 C27.5241,92.319 27.8471,92.443 28.2531,92.443 L31.4831,92.443 L31.4831,94.001 L28.2531,94.001 Z" id="Fill-20" fill="#FFFFFF"></path>
                <path d="M40.5456,88.0538 L40.5456,87.3508 C40.5456,86.5278 40.3396,85.8948 39.9286,85.4508 C39.5166,85.0078 38.9186,84.7858 38.1326,84.7858 C37.3596,84.7858 36.7646,85.0078 36.3466,85.4508 C35.9286,85.8948 35.7196,86.5278 35.7196,87.3508 L35.7196,87.9028 L40.6786,87.9028 L40.5456,88.0538 Z M38.1326,94.1918 C37.3096,94.1918 36.5906,94.0268 35.9766,93.6978 C35.3616,93.3678 34.8866,92.9028 34.5516,92.3008 C34.2156,91.6998 34.0476,90.9988 34.0476,90.2008 L34.0476,87.3508 C34.0476,86.5398 34.2156,85.8378 34.5516,85.2418 C34.8866,84.6468 35.3616,84.1848 35.9766,83.8548 C36.5906,83.5258 37.3096,83.3618 38.1326,83.3618 C38.9566,83.3618 39.6746,83.5258 40.2896,83.8548 C40.9036,84.1848 41.3786,84.6468 41.7146,85.2418 C42.0496,85.8378 42.2176,86.5398 42.2176,87.3508 L42.2176,89.1948 L35.7196,89.1948 L35.7196,90.2008 C35.7196,91.0248 35.9286,91.6548 36.3466,92.0918 C36.7646,92.5288 37.3596,92.7468 38.1326,92.7468 C38.7916,92.7468 39.3236,92.6298 39.7286,92.3958 C40.1336,92.1608 40.3806,91.8098 40.4696,91.3408 L42.1796,91.3408 C42.0656,92.2148 41.6386,92.9078 40.8976,93.4218 C40.1566,93.9348 39.2346,94.1918 38.1326,94.1918 L38.1326,94.1918 Z" id="Fill-22" fill="#FFFFFF"></path>
                <path d="M50.672,94.001 C49.811,94.001 49.12,93.751 48.601,93.25 C48.082,92.75 47.822,92.082 47.822,91.246 L47.822,85.109 L44.877,85.109 L44.877,83.551 L47.822,83.551 L47.822,80.606 L49.532,80.606 L49.532,83.551 L53.712,83.551 L53.712,85.109 L49.532,85.109 L49.532,91.246 C49.532,91.601 49.637,91.889 49.846,92.11 C50.055,92.332 50.33,92.443 50.672,92.443 L53.522,92.443 L53.522,94.001 L50.672,94.001 Z" id="Fill-24" fill="#FFFFFF"></path>
                <path d="M62.0719,94.001 C61.2109,94.001 60.5199,93.751 60.0009,93.25 C59.4819,92.75 59.2219,92.082 59.2219,91.246 L59.2219,85.109 L56.2769,85.109 L56.2769,83.551 L59.2219,83.551 L59.2219,80.606 L60.9319,80.606 L60.9319,83.551 L65.1119,83.551 L65.1119,85.109 L60.9319,85.109 L60.9319,91.246 C60.9319,91.601 61.0369,91.889 61.2459,92.11 C61.4549,92.332 61.7299,92.443 62.0719,92.443 L64.9219,92.443 L64.9219,94.001 L62.0719,94.001 Z" id="Fill-26" fill="#FFFFFF"></path>
                <path d="M74.7448,88.0538 L74.7448,87.3508 C74.7448,86.5278 74.5388,85.8948 74.1278,85.4508 C73.7158,85.0078 73.1178,84.7858 72.3318,84.7858 C71.5588,84.7858 70.9638,85.0078 70.5458,85.4508 C70.1278,85.8948 69.9188,86.5278 69.9188,87.3508 L69.9188,87.9028 L74.8778,87.9028 L74.7448,88.0538 Z M72.3318,94.1918 C71.5088,94.1918 70.7898,94.0268 70.1758,93.6978 C69.5608,93.3678 69.0858,92.9028 68.7508,92.3008 C68.4148,91.6998 68.2468,90.9988 68.2468,90.2008 L68.2468,87.3508 C68.2468,86.5398 68.4148,85.8378 68.7508,85.2418 C69.0858,84.6468 69.5608,84.1848 70.1758,83.8548 C70.7898,83.5258 71.5088,83.3618 72.3318,83.3618 C73.1558,83.3618 73.8738,83.5258 74.4888,83.8548 C75.1028,84.1848 75.5778,84.6468 75.9138,85.2418 C76.2488,85.8378 76.4168,86.5398 76.4168,87.3508 L76.4168,89.1948 L69.9188,89.1948 L69.9188,90.2008 C69.9188,91.0248 70.1278,91.6548 70.5458,92.0918 C70.9638,92.5288 71.5588,92.7468 72.3318,92.7468 C72.9908,92.7468 73.5228,92.6298 73.9278,92.3958 C74.3328,92.1608 74.5798,91.8098 74.6688,91.3408 L76.3788,91.3408 C76.2648,92.2148 75.8378,92.9078 75.0968,93.4218 C74.3558,93.9348 73.4338,94.1918 72.3318,94.1918 L72.3318,94.1918 Z" id="Fill-28" fill="#FFFFFF"></path>
                <path d="M95.2077,94.1915 C94.3717,94.1915 93.6407,94.0325 93.0137,93.7155 C92.3867,93.3995 91.9017,92.9405 91.5597,92.3385 C91.2177,91.7375 91.0477,91.0245 91.0477,90.2015 L91.0477,87.3505 C91.0477,86.5145 91.2177,85.7995 91.5597,85.2045 C91.9017,84.6085 92.3867,84.1525 93.0137,83.8365 C93.6407,83.5195 94.3717,83.3615 95.2077,83.3615 C96.4107,83.3615 97.3797,83.6835 98.1147,84.3305 C98.8497,84.9755 99.2357,85.8565 99.2737,86.9705 L97.5627,86.9705 C97.5257,86.2995 97.3017,85.7835 96.8897,85.4225 C96.4777,85.0615 95.9167,84.8805 95.2077,84.8805 C94.4597,84.8805 93.8647,85.0925 93.4227,85.5175 C92.9787,85.9425 92.7567,86.5465 92.7567,87.3325 L92.7567,90.2015 C92.7567,90.9865 92.9787,91.5945 93.4227,92.0255 C93.8647,92.4565 94.4597,92.6705 95.2077,92.6705 C95.9167,92.6705 96.4777,92.4875 96.8897,92.1205 C97.3017,91.7535 97.5257,91.2395 97.5627,90.5815 L99.2737,90.5815 C99.2357,91.6955 98.8497,92.5765 98.1147,93.2215 C97.3797,93.8685 96.4107,94.1915 95.2077,94.1915" id="Fill-30" fill="#FFFFFF"></path>
                <path d="M102.903,94.001 L102.903,83.551 L104.612,83.551 L104.612,85.546 L104.973,85.546 L104.612,85.945 C104.612,85.122 104.86,84.485 105.354,84.035 C105.848,83.586 106.532,83.361 107.406,83.361 C108.495,83.361 109.362,83.706 110.008,84.397 C110.655,85.087 110.977,86.021 110.977,87.199 L110.977,87.921 L109.268,87.921 L109.268,87.351 C109.268,86.553 109.065,85.936 108.66,85.498 C108.255,85.062 107.665,84.843 106.893,84.843 C106.158,84.843 105.594,85.056 105.202,85.48 C104.809,85.904 104.612,86.527 104.612,87.351 L104.612,94.001 L102.903,94.001 Z" id="Fill-32" fill="#FFFFFF"></path>
                <path d="M120.3444,88.0538 L120.3444,87.3508 C120.3444,86.5278 120.1374,85.8948 119.7274,85.4508 C119.3154,85.0078 118.7164,84.7858 117.9314,84.7858 C117.1584,84.7858 116.5634,85.0078 116.1454,85.4508 C115.7274,85.8948 115.5184,86.5278 115.5184,87.3508 L115.5184,87.9028 L120.4774,87.9028 L120.3444,88.0538 Z M117.9314,94.1918 C117.1084,94.1918 116.3894,94.0268 115.7744,93.6978 C115.1604,93.3678 114.6854,92.9028 114.3504,92.3008 C114.0144,91.6998 113.8464,90.9988 113.8464,90.2008 L113.8464,87.3508 C113.8464,86.5398 114.0144,85.8378 114.3504,85.2418 C114.6854,84.6468 115.1604,84.1848 115.7744,83.8548 C116.3894,83.5258 117.1084,83.3618 117.9314,83.3618 C118.7544,83.3618 119.4734,83.5258 120.0874,83.8548 C120.7014,84.1848 121.1764,84.6468 121.5124,85.2418 C121.8484,85.8378 122.0164,86.5398 122.0164,87.3508 L122.0164,89.1948 L115.5184,89.1948 L115.5184,90.2008 C115.5184,91.0248 115.7274,91.6548 116.1454,92.0918 C116.5634,92.5288 117.1584,92.7468 117.9314,92.7468 C118.5894,92.7468 119.1214,92.6298 119.5274,92.3958 C119.9324,92.1608 120.1794,91.8098 120.2684,91.3408 L121.9784,91.3408 C121.8644,92.2148 121.4364,92.9078 120.6964,93.4218 C119.9544,93.9348 119.0324,94.1918 117.9314,94.1918 L117.9314,94.1918 Z" id="Fill-34" fill="#FFFFFF"></path>
                <path d="M128.8366,92.8418 C129.6476,92.8418 130.3136,92.6398 130.8326,92.2348 C131.3516,91.8288 131.6106,91.3098 131.6106,90.6758 L131.6106,89.1948 L128.4186,89.1948 C127.8486,89.1948 127.3996,89.3528 127.0696,89.6688 C126.7406,89.9858 126.5756,90.4168 126.5756,90.9608 C126.5756,91.5438 126.7756,92.0028 127.1746,92.3388 C127.5726,92.6738 128.1276,92.8418 128.8366,92.8418 M128.4186,94.1918 C127.3166,94.1918 126.4496,93.9088 125.8156,93.3458 C125.1826,92.7818 124.8656,92.0188 124.8656,91.0558 C124.8656,90.0808 125.1826,89.3148 125.8156,88.7568 C126.4496,88.1998 127.3046,87.9208 128.3816,87.9208 L131.6106,87.9208 L131.6106,86.8758 C131.6106,86.2428 131.4176,85.7488 131.0316,85.3938 C130.6456,85.0388 130.1096,84.8628 129.4266,84.8628 C128.8176,84.8628 128.3056,84.9948 127.8876,85.2608 C127.4696,85.5278 127.2096,85.8758 127.1076,86.3058 L125.3986,86.3058 C125.4616,85.7238 125.6736,85.2108 126.0336,84.7668 C126.3956,84.3238 126.8696,83.9788 127.4596,83.7318 C128.0486,83.4848 128.7036,83.3618 129.4266,83.3618 C130.6296,83.3618 131.5786,83.6718 132.2756,84.2918 C132.9726,84.9128 133.3206,85.7548 133.3206,86.8198 L133.3206,94.0008 L131.6496,94.0008 L131.6496,92.0058 L131.3636,92.0058 L131.6496,91.7208 C131.6496,92.4818 131.3546,93.0828 130.7656,93.5268 C130.1766,93.9698 129.3946,94.1918 128.4186,94.1918" id="Fill-36" fill="#FFFFFF"></path>
                <path d="M141.8708,94.001 C141.0098,94.001 140.3188,93.751 139.7998,93.25 C139.2798,92.75 139.0208,92.082 139.0208,91.246 L139.0208,85.109 L136.0758,85.109 L136.0758,83.551 L139.0208,83.551 L139.0208,80.606 L140.7308,80.606 L140.7308,83.551 L144.9108,83.551 L144.9108,85.109 L140.7308,85.109 L140.7308,91.246 C140.7308,91.601 140.8358,91.889 141.0448,92.11 C141.2538,92.332 141.5288,92.443 141.8708,92.443 L144.7218,92.443 L144.7218,94.001 L141.8708,94.001 Z" id="Fill-38" fill="#FFFFFF"></path>
                <path d="M152.1315,92.6329 C152.8775,92.6329 153.4605,92.4239 153.8795,92.0059 C154.2975,91.5879 154.5065,90.9739 154.5065,90.1629 L154.5065,87.3889 C154.5065,86.5779 154.2975,85.9639 153.8795,85.5459 C153.4605,85.1279 152.8775,84.9189 152.1315,84.9189 C151.3965,84.9189 150.8175,85.1279 150.3925,85.5459 C149.9675,85.9639 149.7565,86.5779 149.7565,87.3889 L149.7565,90.1629 C149.7565,90.9739 149.9675,91.5879 150.3925,92.0059 C150.8175,92.4239 151.3965,92.6329 152.1315,92.6329 M152.1315,94.1539 C151.2945,94.1539 150.5695,93.9909 149.9555,93.6689 C149.3405,93.3459 148.8695,92.8869 148.5395,92.2909 C148.2095,91.6959 148.0455,90.9869 148.0455,90.1629 L148.0455,87.3889 C148.0455,86.5659 148.2095,85.8569 148.5395,85.2609 C148.8695,84.6659 149.3405,84.2059 149.9555,83.8839 C150.5695,83.5609 151.2945,83.3999 152.1315,83.3999 C152.9795,83.3999 153.7075,83.5609 154.3155,83.8839 C154.9245,84.2059 155.3925,84.6619 155.7215,85.2519 C156.0515,85.8409 156.2155,86.5469 156.2155,87.3699 L156.2155,90.1629 C156.2155,90.9869 156.0515,91.6959 155.7215,92.2909 C155.3925,92.8869 154.9245,93.3459 154.3155,93.6689 C153.7075,93.9909 152.9795,94.1539 152.1315,94.1539" id="Fill-40" fill="#FFFFFF"></path>
                <path d="M159.901,94.001 L159.901,83.551 L161.612,83.551 L161.612,85.546 L161.973,85.546 L161.612,85.945 C161.612,85.122 161.858,84.485 162.352,84.035 C162.846,83.586 163.531,83.361 164.405,83.361 C165.494,83.361 166.362,83.706 167.007,84.397 C167.654,85.087 167.977,86.021 167.977,87.199 L167.977,87.921 L166.266,87.921 L166.266,87.351 C166.266,86.553 166.064,85.936 165.659,85.498 C165.253,85.062 164.665,84.843 163.891,84.843 C163.157,84.843 162.593,85.056 162.201,85.48 C161.807,85.904 161.612,86.527 161.612,87.351 L161.612,94.001 L159.901,94.001 Z" id="Fill-42" fill="#FFFFFF"></path>
            </g>
        </g>
    </g>
</svg>