<?xml version="1.0" encoding="UTF-8"?>
<svg width="11px" height="11px" viewBox="0 0 11 11" version="1.1" xmlns="http://www.w3.org/2000/svg" xmlns:xlink="http://www.w3.org/1999/xlink">
    <title>Fill 1 Copy</title>
    <g id="Welcome" stroke="none" stroke-width="1" fill="none" fill-rule="evenodd">
        <g id="Desktop-HD---Dark" transform="translate(-53.000000, -651.000000)" fill="#FF2600">
            <g id="about" transform="translate(53.000000, 213.000000)">
                <g id="list-bulletpoints" transform="translate(0.000000, 179.843185)">
                    <g id="red" transform="translate(0.000000, 258.156815)">
                        <path d="M5.5,2 C3.57007042,2 2,3.57003587 2,5.49992298 C2,7.42996413 3.57007042,9 5.5,9 C7.42992958,9 9,7.42996413 9,5.49992298 C9,3.57003587 7.42992958,2 5.5,2 M5.5,11 C2.46740574,11 0,8.53270755 0,5.49992698 C0,2.46729245 2.46740574,0 5.5,0 C8.53274031,0 11,2.46729245 11,5.49992698 C11,8.53270755 8.53274031,11 5.5,11" id="Fill-1-Copy"></path>
                    </g>
                </g>
            </g>
        </g>
    </g>
</svg>