<?xml version="1.0" encoding="UTF-8"?>
<svg width="11px" height="11px" viewBox="0 0 11 11" version="1.1" xmlns="http://www.w3.org/2000/svg" xmlns:xlink="http://www.w3.org/1999/xlink">
    <title>Group 10 Copy 3</title>
    <defs>
        <polygon id="path-1" points="0 0 9.26315789 0 9.26315789 7.81578947 0 7.81578947"></polygon>
        <polygon id="path-3" points="0 0 8.97368421 0 8.97368421 7.81578947 0 7.81578947"></polygon>
    </defs>
    <g id="Welcome" stroke="none" stroke-width="1" fill="none" fill-rule="evenodd">
        <g id="Desktop-HD---Dark" transform="translate(-53.000000, -894.000000)">
            <g id="about" transform="translate(53.000000, 213.000000)">
                <g id="list-bulletpoints" transform="translate(0.000000, 179.843185)">
                    <g id="yellow" transform="translate(0.000000, 438.156815)">
                        <g id="Group-9" transform="translate(0.000000, 63.000000)">
                            <g id="Group-3" transform="translate(0.000000, 3.184211)">
                                <mask id="mask-2" fill="white">
                                    <use xlink:href="#path-1"></use>
                                </mask>
                                <g id="Clip-2"></g>
                                <path d="M2.31060688,6.79326324 C1.33402818,6.09499202 0.625159669,5.12163982 0.26099183,3.9787473 C-0.0910273228,2.87446007 -0.0867826012,1.66257712 0.272701407,0.566363235 C0.414240917,0.134365717 0.878232898,-0.100642107 1.30899896,0.0414488198 C1.73961864,0.183539747 1.97395655,0.648711386 1.83227067,1.0807089 C1.30036314,2.70301151 1.8755961,4.46006563 3.26376644,5.45264709 C4.66715922,6.45609086 6.58562701,6.40324713 7.92900821,5.32435425 C8.28293017,5.04002561 8.79946888,5.09727298 9.08298701,5.45235351 C9.36635877,5.80714046 9.30927458,6.32530262 8.95535262,6.60948448 C7.04142229,8.14664996 4.30899254,8.22224585 2.31060688,6.79326324" id="Fill-1" fill="#F8DA01" mask="url(#mask-2)"></path>
                            </g>
                            <g id="Group-6" transform="translate(2.026316, 0.000000)">
                                <mask id="mask-4" fill="white">
                                    <use xlink:href="#path-3"></use>
                                </mask>
                                <g id="Clip-5"></g>
                                <path d="M0.339861198,2.4198291 C0.270369915,2.36888752 0.207524368,2.30561896 0.154647425,2.23061751 C-0.108292566,1.85843207 -0.027821371,1.33743187 0.334371242,1.06727812 C2.22855048,-0.346165128 4.78239126,-0.356709887 6.68928408,1.04099048 C8.59603243,2.43869085 9.41880344,4.92398656 8.73660419,7.22541733 C8.60614551,7.66547536 8.15336862,7.91349997 7.72529654,7.77938846 C7.29722445,7.64527695 7.05595534,7.17982238 7.18641403,6.73976434 C7.66534044,5.12403995 7.08759482,3.37895661 5.74847902,2.39740292 C4.40936321,1.41599775 2.61617026,1.4231266 1.28630069,2.41552208 C0.997066702,2.63131835 0.615659243,2.62196173 0.339861198,2.4198291" id="Fill-4" fill="#F8DA01" mask="url(#mask-4)"></path>
                            </g>
                            <path d="M7.41235481,6.90502446 C6.71636361,7.88119155 5.36066793,8.10842849 4.38449566,7.41229228 C3.40817467,6.71630478 3.18108524,5.3606163 3.87722515,4.38444922 C4.57321635,3.40828214 5.92876331,3.18104519 6.9050843,3.87718141 C7.88125657,4.57316891 8.10834601,5.92885738 7.41235481,6.90502446" id="Fill-7" fill="#F8DA01"></path>
                        </g>
                    </g>
                </g>
            </g>
        </g>
    </g>
</svg>